<?xml version="1.0" encoding="utf-8"?>
<!-- Generator: Adobe Illustrator 16.0.0, SVG Export Plug-In . SVG Version: 6.00 Build 0)  -->
<!DOCTYPE svg PUBLIC "-//W3C//DTD SVG 1.1//EN" "http://www.w3.org/Graphics/SVG/1.1/DTD/svg11.dtd">
<svg version="1.1" id="Шар_1" xmlns="http://www.w3.org/2000/svg" xmlns:xlink="http://www.w3.org/1999/xlink" x="0px" y="0px"
	 width="571.124px" height="37.509px" viewBox="0 0 571.124 37.509" enable-background="new 0 0 571.124 37.509"
	 xml:space="preserve">
<g>
	<defs>
		<rect id="SVGID_1_" width="571.124" height="37.509"/>
	</defs>
	<clipPath id="SVGID_2_">
		<use xlink:href="#SVGID_1_"  overflow="visible"/>
	</clipPath>
	<path clip-path="url(#SVGID_2_)" fill="#B0548F" d="M552.068,31.433h5.51V20.738c0-2.632,0.632-4.42,4.457-4.42
		c3.333,0,3.613,1.754,3.613,4.175v10.939h5.476V19.404c0-4.945-1.122-8.277-7.124-8.277c-4.21,0-6.141,1.019-7.194,2.178
		l-0.456-1.721l-4.281,0.316V31.433z M538.158,27.118c-3.827,0-4.846-2.139-4.846-5.503c0-3.369,1.019-5.47,4.846-5.47
		c3.789,0,4.842,2.101,4.842,5.47C543,24.979,541.947,27.118,538.158,27.118 M538.158,31.818c7.474,0,10.352-3.682,10.352-10.345
		c0-6.663-2.878-10.347-10.352-10.347c-7.477,0-10.391,3.684-10.391,10.347C527.768,28.137,530.682,31.818,538.158,31.818
		 M518.673,9.762h5.544V4.747h-5.544V9.762z M518.708,31.433h5.472V11.584h-5.472V31.433z M501.404,16.283h3.263v8.978
		c0,4.418,1.542,6.242,6.914,6.242c0.982,0,2.455,0,3.264-0.07v-4.594h-2.14c-2.354,0-2.564-0.842-2.564-2.384v-8.172h4.704v-4.699
		h-4.704V5.869l-4.28,0.876l-0.949,4.839h-3.507V16.283z M487.895,27.33c-2.525,0-3.333-0.703-3.333-2.175
		c0-2.138,0.841-2.7,7.861-2.7h0.456v0.736C492.879,26.103,491.369,27.33,487.895,27.33 M486.808,31.748
		c3.755,0,5.964-0.842,6.984-2.21c0.771,1.542,1.683,1.965,3.79,1.965c1.228,0,1.93-0.037,2.315-0.141v-4.488
		c-1.615,0-1.719-0.247-1.719-1.824v-6.03c0-5.612-1.476-7.893-8.634-7.893c-4.176,0-7.688,1.475-9.089,2.422l2.735,4.031
		c1.194-0.737,3.334-1.612,5.757-1.612c3.439,0,3.895,0.912,3.931,2.701h-0.807c-8.81,0-12.739,1.331-12.739,6.942
		C479.333,29.082,480.667,31.748,486.808,31.748 M465.562,27.083c-3.615,0-4.352-2.489-4.352-5.68c0-3.157,0.736-5.33,4.352-5.33
		c3.999,0,5.055,1.577,5.055,5.33C470.616,25.224,469.351,27.083,465.562,27.083 M464.263,31.818c3.825,0,5.894-0.807,7.087-2.211
		l0.564,1.999l4.21-0.386v-27h-5.508v8.765c-0.845-1.052-2.563-1.859-6.178-1.859c-6.947,0-8.809,4.594-8.809,10.276
		C455.63,27.118,457.421,31.818,464.263,31.818 M433.064,31.433h5.515V20.738c0-2.632,0.63-4.42,4.456-4.42
		c3.333,0,3.615,1.754,3.615,4.175v10.939h5.472V19.404c0-4.945-1.123-8.277-7.122-8.277c-4.212,0-6.143,1.019-7.196,2.178
		l-0.454-1.721l-4.285,0.316V31.433z M419.357,31.748c7.578,0,9.403-2.809,9.403-9.609V11.584h-5.404v10.661
		c0,2.77-0.07,4.734-3.966,4.734c-3.931,0-4.001-1.93-4.001-4.699V11.584h-5.508v10.59
		C409.882,28.978,411.775,31.748,419.357,31.748 M396.138,27.118c-3.827,0-4.842-2.139-4.842-5.503c0-3.369,1.015-5.47,4.842-5.47
		c3.789,0,4.843,2.101,4.843,5.47C400.98,24.979,399.927,27.118,396.138,27.118 M396.138,31.818c7.475,0,10.352-3.682,10.352-10.345
		c0-6.663-2.877-10.347-10.352-10.347s-10.389,3.684-10.389,10.347C385.749,28.137,388.663,31.818,396.138,31.818 M364.339,31.433
		h5.757v-10.1h12.81v-5.118h-12.81v-5.576h13.16V5.447h-18.917V31.433z M345.406,15.721c3.402,0,3.859,1.648,4.001,3.928h-8.81
		C340.879,17.231,342.003,15.721,345.406,15.721 M345.616,31.818c3.932,0,6.456-0.771,9.021-2.699l-2.773-3.578
		c-1.474,1.086-3.194,1.822-6.247,1.822c-3.543,0-4.703-1.401-5.019-3.785h13.829c0.174-6.627-0.107-12.451-8.846-12.451
		c-8.491,0-10.316,4.806-10.316,10.347C335.265,27.118,337.019,31.818,345.616,31.818 M312.757,31.433h5.509V20.738
		c0-2.632,0.635-4.42,4.458-4.42c3.335,0,3.614,1.754,3.614,4.175v10.939h5.476V19.404c0-4.945-1.124-8.277-7.126-8.277
		c-4.208,0-6.14,1.019-7.192,2.178l-0.456-1.721l-4.282,0.316V31.433z M300.021,15.721c3.404,0,3.864,1.648,4.002,3.928h-8.808
		C295.494,17.231,296.618,15.721,300.021,15.721 M300.231,31.818c3.932,0,6.459-0.771,9.021-2.699l-2.773-3.578
		c-1.475,1.086-3.193,1.822-6.248,1.822c-3.544,0-4.7-1.401-5.017-3.785h13.827c0.176-6.627-0.104-12.451-8.845-12.451
		c-8.492,0-10.316,4.806-10.316,10.347C289.881,27.118,291.635,31.818,300.231,31.818 M278.07,15.721
		c3.405,0,3.862,1.648,4.003,3.928h-8.809C273.544,17.231,274.667,15.721,278.07,15.721 M278.282,31.818
		c3.932,0,6.456-0.771,9.019-2.699l-2.772-3.578c-1.473,1.086-3.194,1.822-6.247,1.822c-3.545,0-4.703-1.401-5.018-3.785h13.827
		c0.176-6.627-0.105-12.451-8.844-12.451c-8.493,0-10.318,4.806-10.318,10.347C267.929,27.118,269.683,31.818,278.282,31.818
		 M254.596,31.433h5.511v-9.817c0-3.124,1.018-4.946,5.686-4.98v-5.261c-3.089,0.107-5.512,1.124-6.352,2.384l-0.563-2.174
		l-4.282,0.316V31.433z M238.499,31.818c9.545,0,12.495-3.858,12.495-11.258v-4.243h-12.951v4.77h7.265v0.561
		c0,3.646-1.476,5.331-6.528,5.331c-6.282,0-7.827-2.807-7.827-8.488c0-5.399,2.212-8.204,7.897-8.204
		c3.58,0,5.299,1.122,6.632,2.384l3.932-3.961c-2.07-2.141-5.265-3.684-10.528-3.684c-8.774,0-13.689,3.998-13.689,13.395
		C225.197,27.05,228.111,31.818,238.499,31.818 M211.093,31.433h6.387v-6.312h-6.387V31.433z M188.963,31.433h18.529v-4.979h-12.773
		V5.447h-5.756V31.433z M170.029,15.721c3.404,0,3.861,1.648,4.001,3.928h-8.809C165.502,17.231,166.625,15.721,170.029,15.721
		 M170.24,31.818c3.931,0,6.458-0.771,9.019-2.699l-2.772-3.578c-1.475,1.086-3.195,1.822-6.247,1.822
		c-3.544,0-4.702-1.401-5.019-3.785h13.826c0.178-6.627-0.103-12.451-8.841-12.451c-8.494,0-10.319,4.806-10.319,10.347
		C159.887,27.118,161.642,31.818,170.24,31.818 M124.585,31.433h5.512V20.738c0-2.632,0.419-4.42,4.244-4.42
		c3.335,0,3.405,1.754,3.405,4.175v10.939h5.509V20.738c0-2.632,0.422-4.42,4.247-4.42c3.335,0,3.369,1.754,3.369,4.175v10.939
		h5.545V19.404c0-4.945-0.947-8.277-6.948-8.277c-4.176,0-6.353,0.948-7.37,2.248c-0.633-1.264-1.439-2.248-5.79-2.248
		c-4.002,0-6.107,0.984-6.984,2.178l-0.458-1.721l-4.281,0.316V31.433z M110.674,27.118c-3.824,0-4.844-2.139-4.844-5.503
		c0-3.369,1.02-5.47,4.844-5.47c3.79,0,4.843,2.101,4.843,5.47C115.517,24.979,114.464,27.118,110.674,27.118 M110.674,31.818
		c7.474,0,10.352-3.682,10.352-10.345c0-6.663-2.878-10.347-10.352-10.347c-7.475,0-10.388,3.684-10.388,10.347
		C100.286,28.137,103.199,31.818,110.674,31.818 M86.971,31.433h5.51v-9.817c0-3.124,1.018-4.946,5.686-4.98v-5.261
		c-3.088,0.107-5.511,1.124-6.351,2.384l-0.563-2.174L86.971,11.9V31.433z M74.237,15.721c3.404,0,3.86,1.648,3.999,3.928h-8.807
		C69.71,17.231,70.831,15.721,74.237,15.721 M74.445,31.818c3.932,0,6.459-0.771,9.021-2.699l-2.773-3.578
		c-1.473,1.086-3.193,1.822-6.248,1.822c-3.543,0-4.702-1.401-5.016-3.785h13.827c0.175-6.627-0.107-12.451-8.844-12.451
		c-8.493,0-10.317,4.806-10.317,10.347C64.095,27.118,65.849,31.818,74.445,31.818 M51.579,31.503c5.229,0,8.915-1.719,8.915-8.277
		V5.447h-5.72v17.571c0,2.455-0.913,3.436-3.896,3.436h-3.125v4.979C48.948,31.503,49.333,31.503,51.579,31.503"/>
	<path clip-path="url(#SVGID_2_)" fill="#B0548F" d="M36.314,11.304c-14.657-2.197-24.906,0-24.906,0
		c-1.365,8.366,0,14.834,0,14.834c7.728,1.416,14.944,0,14.944,0c0.151-2.018,0-5.175,0-5.175c-6.476,0.48-9.858,0.23-9.858,0.23
		c-0.194-2.807,0-4.947,0-4.947c7.912-1.395,14.839,0,14.839,0s1.293,7.179,0,14.834c-0.196,0.02-12.863,2.214-24.906,0
		c0,0-2.272-10.767,0-24.723c14.472-2.117,27.144-0.501,29.946-0.09c0.444-2.626,0.596-5.09,0.596-5.09
		C19.818-1.604,1.446,1.413,1.446,1.413s-3.25,17.329-0.006,34.615c0,0,13.078,3.337,34.874-0.006
		C39.243,24.072,36.314,11.304,36.314,11.304"/>
</g>
</svg>
