<svg xmlns="http://www.w3.org/2000/svg" id="uuid-21ce341d-c12f-40f0-9d3f-d18b6b97d61c" viewBox="0 0 532.61 95.43"><path d="M285.02,63.22l-10.46,31.05h15.41l14.96-45.45h-13.84c-1.58,0-3.38.34-5.06,1.12-1.69.68-3.15,1.69-4.27,3.04l-9.79,11.02-2.36-10.46c-.11-.79-.45-1.35-1.01-2.02-.45-.56-1.01-1.01-1.69-1.46s-1.46-.79-2.36-1.01c-.79-.11-1.57-.22-2.47-.22h-15.3l-15.19,45.45h15.19l10.58-31.61,4.73,21.71h3.37l19.57-21.15h0ZM354.21,58.5c-.67,4.61-1.8,9.23-3.15,13.72-1.35,4.5-3.04,9-5.18,13.39-1.13,2.25-2.81,4.05-5.06,5.51-2.25,1.35-4.72,2.25-7.31,2.7-2.14.34-4.28.56-6.41.67-2.14.23-4.28.34-6.42.34-1.58,0-3.26-.11-4.95-.11-1.69-.12-3.38-.23-4.95-.56-1.69-.22-3.26-.56-4.72-1.12-1.35-.45-2.7-1.24-3.71-2.02-1.01-.9-1.8-2.03-2.36-3.27-.57-1.23-.79-2.81-.57-4.72.23-2.03.57-4.28,1.13-6.53.56-2.25,1.24-4.5,2.02-6.75.67-2.25,1.46-4.38,2.37-6.52.9-2.14,1.68-4.16,2.59-6.07.45-1.01,1.24-2.03,2.25-3.04,1.12-1.12,2.59-2.02,4.5-2.93,1.91-.9,4.28-1.57,7.2-2.13,2.81-.56,6.3-.79,10.35-.79,2.03,0,4.28,0,6.64.11,2.36,0,4.61.34,6.64.9,2.14.56,4.05,1.35,5.74,2.47,1.69,1.24,2.81,2.93,3.37,5.06v1.69h0ZM329.46,84.04c2.7-2.03,7.31-17.44,8.66-22.84.34-.9.11-1.69-.33-2.25-.45-.45-1.01-.9-1.91-1.12-.79-.34-1.69-.45-2.59-.56-1.01-.11-1.8-.11-2.47-.11-.79,0-1.58,0-2.59.11-.9.11-1.8.22-2.58.56-.9.22-1.58.56-2.37,1.01-.67.45-1.12,1.12-1.46,1.91-1.35,3.15-2.59,6.41-3.82,9.79-1.12,3.38-2.14,6.86-2.93,10.24-.22.9-.22,1.58,0,2.25.23.56.56,1.12,1.01,1.57.56.45,1.24.68,2.02.9.79.22,1.58.34,2.48.22.9,0,1.91,0,3.04-.11,1.12-.11,2.14-.22,3.15-.45,1.12-.22,2.03-.56,2.7-1.13h0ZM391.11,94.28h15.53l15.19-45.45h-15.3l-15.41,45.45h0ZM454.37,53.55l4.84,21.6,8.89-26.32h14.74l-15.08,45.45h-18.34l-7.31-31.61-10.57,31.61h-15.19l15.08-45.45h15.41c.9,0,1.69.11,2.48.22.9.22,1.57.56,2.25,1.01.79.45,1.35.9,1.8,1.46.45.67.79,1.24,1.01,2.02h0ZM496.04,80.89c.34-3.38,1.13-6.75,2.36-10.01,1.13-3.27,2.7-6.41,4.61-9.34.34-.56.79-1.01,1.35-1.35.56-.34,1.24-.45,1.91-.45h22.72l3.6-10.91h-30.26c-1.46,0-2.81.11-4.27.56-1.35.45-2.59.9-3.82,1.69-1.24.67-2.36,1.46-3.38,2.36-1.01,1.01-1.8,1.91-2.36,3.04-2.14,3.6-3.94,7.31-5.4,11.03-1.46,3.83-2.7,7.76-3.49,11.81-.23,1.58-.34,3.15-.23,4.95.11,1.69.57,3.38,1.24,4.84.79,1.57,1.8,2.81,3.15,3.82,1.35,1.13,3.04,1.69,5.29,1.91,10.46,1.13,21.04.45,30.6-.45l7.32-20.7h-15.3l-3.71,10.35c-1.68,0-3.26,0-4.84.11-1.57,0-3.15-.11-4.72-.34-.67,0-1.35-.33-1.8-1.01-.45-.67-.67-1.24-.56-1.91h0ZM358.26,94.28v-47.14h13.84v23.74l16.2-23.74h15.86l-31.95,47.14h-13.95Z" fill="#2c3077" stroke-width="0"></path><path d="M206.27,0l-.11,34.65c.23,1.8.79,3.38,1.58,4.73.9,1.24,1.8,2.25,3.04,3.15,1.24.9,2.59,1.58,4.05,2.14,1.46.45,3.04.9,4.61,1.12,1.58.23,3.26.45,4.84.45,1.69.11,3.37.11,4.84.11,2.14,0,4.5,0,6.97-.11,2.59-.22,5.06-.56,7.42-1.12,2.25-.56,4.39-1.46,6.19-2.7,1.8-1.24,2.92-3.04,3.6-5.29l-.11-37.12h-15.75l.11,32.62c-.22.9-.56,1.57-1.01,2.14-.56.56-1.13,1.01-1.91,1.35-.67.34-1.58.67-2.48.79-2.14.45-3.82.34-5.96-.11-1.01-.22-1.91-.45-2.7-.9-.79-.34-1.46-.9-1.91-1.46-.56-.56-.79-1.24-.67-2.02l-.11-32.4h-14.51ZM291.21,45.45h14.4l-10.12-14.17c1.46-.79,2.7-1.91,3.71-3.15,1.01-1.35,1.8-2.7,2.25-4.16.9-2.14,1.24-4.28,1.24-6.64-.11-2.25-.56-4.61-1.35-6.97-.56-1.8-1.57-3.38-2.81-4.61-1.35-1.35-2.81-2.36-4.5-3.26s-3.37-1.46-5.29-1.91c-1.8-.34-3.6-.56-5.4-.56h-25.87l.22,45.45h14.74v-12.94h9.45l9.34,12.94h0ZM272.42,23.17l-.11-14.96h9.45c.68,0,1.35.11,1.91.45.68.23,1.24.56,1.69,1.01.56.45,1.01.9,1.35,1.46.45.45.68,1.01.9,1.46.45,1.46.56,2.81.45,4.05-.23,1.8-1.46,4.61-3.15,5.62-.45.23-1.13.45-1.91.68-.79.11-1.8.22-3.04.22h-7.54ZM431.16,4.73c-.34-.68-.9-1.35-1.57-1.91-.67-.56-1.46-1.12-2.36-1.58-.79-.34-1.69-.67-2.59-.9-.9-.22-1.69-.34-2.59-.34h-15.41l.34,45.45h15.19l-.23-31.61,18.11,31.61h18.23l-.22-45.45h-14.74v26.32l-12.15-21.6h0ZM358.26,0h13.95l31.95,47.14h-15.86l-16.2-23.85v23.85h-13.84V0h0ZM335.76,0h-14.17c-4.5,0-9.11.11-13.72.22.23,0,0,9.56.23,9.56l-.11,35.66h27.56c2.47,0,4.61-.11,6.41-.34,1.8-.11,3.26-.34,4.27-.67,2.7-.9,4.73-2.25,6.19-4.05,1.35-1.91,2.14-4.27,2.03-6.97.22-5.06-2.48-8.55-8.1-10.58,1.24-.34,2.25-1.01,3.26-1.69,1.01-.79,1.91-1.58,2.59-2.59.79-.9,1.35-1.91,1.69-3.04.45-1.13.67-2.25.67-3.49,0-2.14-.67-4.16-2.02-5.96-1.24-1.8-2.93-3.26-5.06-4.39-.56-.22-1.24-.45-2.03-.67-.79-.11-1.8-.34-2.81-.45-2.25-.23-4.61-.45-6.86-.56h0ZM323.5,37.35l-.11-10.46h8.1c1.58,0,2.81,0,3.71.23.79.11,1.57.34,2.25.67,1.69.9,2.48,2.25,2.48,4.05,0,.9-.22,1.69-.67,2.47s-1.13,1.46-1.91,1.91c-.34.22-.67.45-1.12.56-.34.11-.79.23-1.24.34-.34.11-.9.11-1.57.23h-9.9ZM323.5,18.79v-10.13h12.26c2.25.11,4.16,2.47,4.16,4.61-.11.9-.34,1.69-.79,2.48-.45.79-1.13,1.46-1.91,1.91-.67.45-1.46.79-2.25.9-.79.11-2.02.23-3.71.23h-7.76Z" fill="#f17c2b" stroke-width="0"></path><path d="M43.21,71.7H8.19L0,94.14h36.57v.14h.14c8.19,0,15.11-.57,20.76-2.12,13.42-3.39,15.82-15.67,18.5-23.71L98.56,0h-32.05l-23.3,71.69h0ZM152.49,67.32h-36.71l-9.04,26.81h-31.77L106.74,0h53.8c4.52,0,8.89.71,13.13,1.84,4.09,1.13,7.91,3.25,11.16,6.07,1.83,1.84,3.39,3.81,4.38,6.21.99,2.4,1.55,4.8,1.55,7.34,0,4.94-.71,9.88-2.4,14.68-1.56,4.8-3.81,9.32-6.92,13.41-1.7,2.26-3.53,4.52-5.65,6.64-1.98,2.11-4.24,4.09-6.78,5.64-2.4,1.7-5.08,2.96-7.91,4.09-2.68.99-5.65,1.41-8.61,1.41h0ZM122.14,47.99h15.96c2.68,0,4.8-.14,6.5-.42,1.69-.28,3.1-.71,4.38-1.27,1.13-.57,2.12-1.27,2.96-2.12.71-.85,1.56-1.69,2.4-2.54,2.26-1.98,3.81-4.38,5.08-7.06,1.13-2.54,1.69-5.36,1.69-8.33,0-.99-.14-2.11-.56-3.1-.42-1.13-1.13-2.12-1.83-2.96-.71-.99-1.69-1.69-2.68-2.26-1.13-.56-2.26-.71-3.53-.71h-19.76l-10.59,30.77Z" fill="#2c3077" stroke-width="0"></path></svg>